<svg xmlns="http://www.w3.org/2000/svg" viewBox="0 0 26 30" width="26" height="30">
	<style>.cls-1{fill:#b8e0b8;fill-rule:evenodd;}</style>
	<path class="cls-1" d="M9.1,30V24.78H5.2V30H0V0H14.3V5.22H26V30ZM5.85,3.26H3.25V6.52h2.6Zm0,5.22H3.25v3.26h2.6Zm0,5.22H3.25V17h2.6Zm0,5.21H3.25v3.26h2.6Zm5.2-15.65H8.45V6.52h2.6Zm0,5.22H8.45v3.26h2.6Zm0,5.22H8.45V17h2.6Zm0,5.21H8.45v3.26h2.6Zm6.5-10.43H15v3.26h2.6Zm0,5.22H15V17h2.6Zm0,5.21H15v3.26h2.6Zm0,5.22H15v3.26h2.6Zm5.2-15.65h-2.6v3.26h2.6Zm0,5.22h-2.6V17h2.6Zm0,5.21h-2.6v3.26h2.6Zm0,5.22h-2.6v3.26h2.6Z"/>
</svg>