<svg xmlns="http://www.w3.org/2000/svg" width="30" height="30" viewBox="0 0 30 30">
	<style>.cls-1 {fill: #b8e0b8;fill-rule: evenodd;}</style>
	<path id="長方形_993" data-name="長方形 993" class="cls-1" d="M1836.2,1094h-9.6l-1.8-16.2a1.805,1.805,0,0,1,1.8-1.8h9.6a1.805,1.805,0,0,1,1.8,1.8Zm-3.6-16.2h-0.3l0.3-1.2h-2.4l0.3,1.2h-0.3l-0.6,5.4,1.8,1.8,1.8-1.8Zm-1.2-3a5.4,5.4,0,1,1,5.4-5.4A5.4,5.4,0,0,1,1831.4,1074.8Zm-21.6,19.2-1.8-12.6a4.121,4.121,0,0,1,3.6-3.6h4.8a4.121,4.121,0,0,1,3.6,3.6l-1.8,12.6h-8.4Zm10.2-19.2h-2.28a4.744,4.744,0,0,1-7.44,0H1808l1.29-3.86a4.811,4.811,0,0,1,.41-1.23l0.1-.31h0.07a4.754,4.754,0,0,1,8.26,0h0.07l0.1,0.31a4.811,4.811,0,0,1,.41,1.23Z" transform="translate(-1808 -1064)"/>
</svg>
