<svg xmlns="http://www.w3.org/2000/svg" viewBox="0 0 18 18" width="18" height="18">
	<style>.cls-1{fill:#fff;fill-rule:evenodd;}</style>
	<path class="cls-1" d="M9,18a9,9,0,1,1,9-9A9,9,0,0,1,9,18Zm.41-9.41H13a13.71,13.71,0,0,0-.55-3.54h-3ZM13,9.41H9.41v3.53h3A13.63,13.63,0,0,0,13,9.41Zm4.21,0H13.75a14.61,14.61,0,0,1-.52,3.53h2.93A8.07,8.07,0,0,0,17.16,9.41Zm-1.5,4.33H13a13.52,13.52,0,0,1-1.5,3A8.25,8.25,0,0,0,15.66,13.74Zm-5.37,3.33a12,12,0,0,0,1.85-3.33H9.41v3.42A6.4,6.4,0,0,0,10.29,17.07Zm-1.7.09V13.74H5.67A11.94,11.94,0,0,0,7.48,17,6.73,6.73,0,0,0,8.59,17.16ZM6.26,16.7a12.69,12.69,0,0,1-1.44-3H2.35A8.13,8.13,0,0,0,6.26,16.7ZM1.84,12.94H4.57a15.12,15.12,0,0,1-.52-3.53H.84A8.07,8.07,0,0,0,1.84,12.94Zm-1-4.35H4.05a15.28,15.28,0,0,1,.53-3.54H1.85A8,8,0,0,0,.84,8.59ZM2.35,4.25H4.82A12.81,12.81,0,0,1,6.26,1.3,8.33,8.33,0,0,0,2.35,4.25ZM8.59.84A8,8,0,0,0,7.48,1,12,12,0,0,0,5.67,4.25H8.59Zm0,4.21H5.41a14.16,14.16,0,0,0-.56,3.54H8.59ZM4.85,9.41a14.54,14.54,0,0,0,.55,3.53H8.59V9.41ZM9.41.84V4.25h2.72A11.69,11.69,0,0,0,10.29.93,6.4,6.4,0,0,0,9.41.84Zm2.08.37a13,13,0,0,1,1.49,3h2.67A8.33,8.33,0,0,0,11.49,1.21Zm4.66,3.84H13.23a14.76,14.76,0,0,1,.52,3.54h3.41A8,8,0,0,0,16.15,5.05Z"/>
</svg>