<svg xmlns="http://www.w3.org/2000/svg" viewBox="0 0 50 40" width="50" height="40">
	<style>.cls-1{fill:#fff;}</style>
	<path class="cls-1" d="M43.55,18.13c1.88,0,2.8-.16,4.05-1.51C49.11,15,49.9,12.84,50,9.48A12.47,12.47,0,0,0,47.81,2c-1.1-1.47-2.89-2-5-2H19.49V20.15c-.12,2.13-2.51,3-7.09,3C8.22,23.11,6,22.42,6,19V11.85H0v8a7.78,7.78,0,0,0,2,6c2,2.27,5.87,3.55,10.79,3.55,3.43,0,8.2-.54,10.86-3.45,1.29-1.4,1.83-2.33,1.83-5.46V6.34H41.56c1.16,0,2.09.7,2.09,2.92,0,2.92-1.67,2.92-2.07,2.92H29.74L42.08,29h7.78L41.61,18.09ZM11.13,37.37c0,1.44-.52,1.44-.84,1.44H8.5c-.48,0-.64-.1-.72-.19a3.45,3.45,0,0,1-.33-1.95h-1a4,4,0,0,0,.62,2.73,1.84,1.84,0,0,0,1.44.52h1.79a1.69,1.69,0,0,0,1.28-.52,3,3,0,0,0,.58-2V32.7h-1Zm8.29-2.64A2.23,2.23,0,0,0,19,33.2a1.82,1.82,0,0,0-1.42-.5H13.33v7.23h1V37h3c.13,0,.75,0,1,.23a1,1,0,0,1,.18.66v2h1v-2A2.09,2.09,0,0,0,19,36.49,2.57,2.57,0,0,0,19.42,34.73Zm-2.12,1.2h-3V33.81h3.22a1,1,0,0,1,.7.17,1.75,1.75,0,0,1,.15.83C18.41,35.83,18.4,35.93,17.3,35.93Zm7.35-3.36h-.92v.48H20.64v.89h3.09v.39H20.84v3.4h1.92A4.31,4.31,0,0,1,20.64,39v1a5.22,5.22,0,0,0,3.09-2v1.91h.92V38a5.16,5.16,0,0,0,3.08,2V39a4.24,4.24,0,0,1-2.11-1.3h1.92v-3.4H24.65v-.39h3.16v-.89H24.65Zm-.92,4.27H21.65v-.39h2.08Zm0-1.19H21.65v-.43h2.08Zm3,1.19H24.65v-.39h2.07Zm0-1.62v.43H24.65v-.43Zm2.78-2.38H29v7.07H35.1V32.84H29.5Zm4.69,6.07H30v-2h4.23Zm0-3H30v-2h4.23Zm9.18-1.28v-.88H40.31V32.57h-.92v1.14H36.2v.88h2.25a8.12,8.12,0,0,1-2.25,3.54v1.12l0,.07A9,9,0,0,0,39.39,35V38H38.16v.88h1.23v1h.92v-1h1.3V38h-1.3V35a8.94,8.94,0,0,0,3.15,4.36l0-.07V38.13a8,8,0,0,1-2.25-3.54Z"/>
</svg>